<svg xmlns="http://www.w3.org/2000/svg" width="24" height="24" viewBox="0 0 24 24">
  <path d="M22.4,2.3H1.6A.7.7,0,0,0,.9,3V21a.8.8,0,0,0,.7.8H22.4a.8.8,0,0,0,.7-.8V3A.7.7,0,0,0,22.4,2.3Zm-5.6,19H6.4V8.4L9.3,2.8h0V9.4L13,2.8h0V9.7l3.7-7h.1Z" style="fill: #5999cd"/>
  <path d="M13,11.2c-1,0-1.8,1.1-1.8,2.4S12,16,13,16s1.8-1.1,1.8-2.4S14,11.2,13,11.2Zm0,3.6c-.2,0-.4-.3-.4-.6a.4.4,0,1,1,.8,0C13.4,14.5,13.2,14.8,13,14.8Zm.6.9a2,2,0,0,0,.6-1.4c0-.9-.5-1.6-1.2-1.6s-1.1.7-1.1,1.6a1.4,1.4,0,0,0,.6,1.4,2,2,0,0,1-1.1-2.1A1.9,1.9,0,0,1,13,11.3c1,0,1.7,1,1.7,2.3A2.4,2.4,0,0,1,13.6,15.7Z"/>
  <path d="M8.7,11.2c-1,0-1.8,1.1-1.8,2.4S7.7,16,8.7,16s1.8-1.1,1.8-2.4S9.7,11.2,8.7,11.2Zm0,3.6c-.2,0-.4-.3-.4-.6a.5.5,0,0,1,.4-.5.5.5,0,0,1,.4.5C9.1,14.5,8.9,14.8,8.7,14.8Zm.5.9a2.1,2.1,0,0,0,.7-1.4,1.5,1.5,0,0,0-1.2-1.6c-.7,0-1.2.7-1.2,1.6a2,2,0,0,0,.6,1.4A2.5,2.5,0,0,1,7,13.6c0-1.3.8-2.3,1.7-2.3s1.7,1,1.7,2.3A2.4,2.4,0,0,1,9.2,15.7Z"/>
  <path d="M22.4,2.2a.8.8,0,0,1,.7.8V21a.8.8,0,0,1-.7.8H1.6A.8.8,0,0,1,.9,21V3a.8.8,0,0,1,.7-.8H22.4m0-.7H1.6A1.5,1.5,0,0,0,.1,3V21a1.5,1.5,0,0,0,1.5,1.5H22.4A1.5,1.5,0,0,0,23.9,21V3A1.5,1.5,0,0,0,22.4,1.5Z" style="fill: #3e6197"/>
</svg>
