<svg xmlns="http://www.w3.org/2000/svg" width="48" height="48" viewBox="0 0 48 48">
  <path d="M44.8,4.5H3.2A1.5,1.5,0,0,0,1.7,6V42a1.5,1.5,0,0,0,1.5,1.5H44.8A1.5,1.5,0,0,0,46.3,42V6A1.5,1.5,0,0,0,44.8,4.5Zm-11,38.4a.1.1,0,0,1-.1.1h-21a.1.1,0,0,1-.1-.1V16.6L18.5,5.3h.1V18.6L26,5.3h.1V19.3L33.7,5h.1Z" style="fill: #5999cd"/>
  <path d="M26.1,22.3c-2,0-3.6,2.2-3.6,4.9S24.1,32,26.1,32s3.7-2.1,3.7-4.8S28.1,22.3,26.1,22.3Zm0,7.4c-.5,0-.8-.5-.8-1.2s.3-1.1.8-1.1.8.5.8,1.1S26.5,29.7,26.1,29.7Zm1.2,1.8a3.8,3.8,0,0,0,1.2-2.9c0-1.7-1.1-3.2-2.4-3.2s-2.4,1.5-2.4,3.3A3.9,3.9,0,0,0,25,31.6a4.8,4.8,0,0,1-2.3-4.3c0-2.7,1.5-4.8,3.4-4.8s3.4,2.1,3.4,4.6A4.7,4.7,0,0,1,27.3,31.5Z"/>
  <path d="M17.3,22.3c-2.1,0-3.7,2.2-3.7,4.9S15.2,32,17.3,32s3.6-2.1,3.6-4.8S19.3,22.3,17.3,22.3Zm0,7.4c-.5,0-.8-.5-.8-1.2s.3-1.1.8-1.1.8.5.8,1.1S17.7,29.7,17.3,29.7Zm1.1,1.8a3.5,3.5,0,0,0,1.2-2.9c0-1.8-1-3.2-2.3-3.2s-2.4,1.4-2.4,3.2a3.3,3.3,0,0,0,1.3,2.9,4.6,4.6,0,0,1-2.3-4.3c0-2.6,1.5-4.6,3.4-4.6s3.4,2,3.4,4.6A4.8,4.8,0,0,1,18.4,31.5Z"/>
  <path d="M44.8,4.5A1.5,1.5,0,0,1,46.3,6V42a1.5,1.5,0,0,1-1.5,1.5H3.2A1.5,1.5,0,0,1,1.7,42V6A1.5,1.5,0,0,1,3.2,4.5H44.8m0-1.5H3.2a3,3,0,0,0-3,3V42a3.1,3.1,0,0,0,3,3H44.8a3.1,3.1,0,0,0,3-3V6A3,3,0,0,0,44.8,3Z" style="fill: #3e6197"/>
</svg>
